<?xml version="1.0" encoding="UTF-8" standalone="no"?>
<svg
   width="238.81755"
   height="73.875427"
   viewBox="0 0 238.81755 73.875428"
   fill="none"
   version="1.1"
   id="svg8516"
   sodipodi:docname="elastos_banner_black_on_white.svg"
   inkscape:version="1.1.2 (0a00cf5339, 2022-02-04)"
   xmlns:inkscape="http://www.inkscape.org/namespaces/inkscape"
   xmlns:sodipodi="http://sodipodi.sourceforge.net/DTD/sodipodi-0.dtd"
   xmlns="http://www.w3.org/2000/svg"
   xmlns:svg="http://www.w3.org/2000/svg">
  <defs
     id="defs8520">
    <rect
       x="43.636353"
       y="67.019562"
       width="215.616"
       height="69.302635"
       id="rect14462" />
  </defs>
  <sodipodi:namedview
     id="namedview8518"
     pagecolor="#505050"
     bordercolor="#eeeeee"
     borderopacity="1"
     inkscape:pageshadow="0"
     inkscape:pageopacity="0"
     inkscape:pagecheckerboard="0"
     showgrid="false"
     inkscape:lockguides="true"
     fit-margin-top="0"
     fit-margin-left="0"
     fit-margin-right="0"
     fit-margin-bottom="0"
     inkscape:zoom="2.56"
     inkscape:cx="97.070312"
     inkscape:cy="44.921875"
     inkscape:window-width="1846"
     inkscape:window-height="1043"
     inkscape:window-x="0"
     inkscape:window-y="0"
     inkscape:window-maximized="1"
     inkscape:current-layer="svg8516" />
  <g
     id="g1981"
     transform="translate(19.22311,4.4377637)">
    <rect
       style="fill:#ffffff;stroke-width:0.765932;stroke-linecap:round"
       id="rect1655"
       width="238.81755"
       height="73.875427"
       x="-19.22311"
       y="-4.4377637"
       rx="20"
       ry="20" />
    <g
       id="g1864">
      <g
         id="g56585"
         transform="matrix(0.88675819,0,0,0.88675819,15.436018,15.018763)"
         style="fill:#000000">
        <path
           d="M 65.488193,29.91425 V 22.298273 H 78.826019 V 18.075944 H 65.488193 v -7.181906 h 15.03465 V 6.5928149 H 60.358261 V 34.2155 h 20.717035 v -4.30125 z"
           fill="#ffffff"
           id="path8492"
           style="fill:#000000;stroke-width:1.40932" />
        <path
           d="m 86.320511,34.2155 h 4.932628 V 4.935452 h -4.932628 z"
           fill="#ffffff"
           id="path8494"
           style="fill:#000000;stroke-width:1.40932" />
        <path
           d="m 105.77677,12.90655 c -3.39309,0 -6.668359,0.868143 -8.917629,2.604427 l 1.9336,3.590953 c 1.578429,-1.302213 4.025019,-2.091433 6.392109,-2.091433 3.51203,0 5.24832,1.696822 5.24832,4.577477 v 0.315689 h -5.44563 c -6.392109,0 -8.759779,2.762271 -8.759779,6.274302 0,3.669875 3.0385,6.313763 7.852739,6.313763 3.15633,0 5.44506,-1.025986 6.62889,-2.841194 V 34.2155 h 4.65641 V 21.864201 c 0,-6.076997 -3.51204,-8.957651 -9.58903,-8.957651 z m -0.67085,17.994226 c -2.52493,0 -4.02445,-1.144371 -4.02445,-2.920117 0,-1.538979 0.9076,-2.801732 4.26123,-2.801732 h 5.09047 v 2.446583 c -0.82868,2.170357 -2.92012,3.275266 -5.32725,3.275266 z"
           fill="#ffffff"
           id="path8496"
           style="fill:#000000;stroke-width:1.40932" />
        <path
           d="m 128.20754,34.491728 c 5.91915,0 9.54956,-2.564966 9.54956,-6.511069 0,-8.247353 -13.02213,-4.459095 -13.02213,-8.720885 0,-1.381135 1.4206,-2.367661 4.41964,-2.367661 2.01251,0 4.02502,0.39461 6.03753,1.578441 l 1.89413,-3.748797 c -1.89413,-1.14437 -5.09048,-1.815207 -7.89221,-1.815207 -5.68238,0 -9.27334,2.604427 -9.27334,6.589991 0,8.405196 13.02214,4.616939 13.02214,8.641963 0,1.460057 -1.30221,2.328199 -4.41963,2.328199 -2.64389,0 -5.48509,-0.868142 -7.33975,-2.091433 l -1.89413,3.748797 c 1.89413,1.341675 5.40615,2.367661 8.91819,2.367661 z"
           fill="#ffffff"
           id="path8498"
           style="fill:#000000;stroke-width:1.40932" />
        <path
           d="m 153.29066,29.559101 c -0.74976,0.591915 -1.73629,0.868142 -2.76227,0.868142 -1.89413,0 -2.92013,-1.104909 -2.92013,-3.156882 V 17.247262 h 5.64293 V 13.30116 h -5.64293 V 8.486915 h -4.93262 v 4.814245 h -3.47257 v 3.946102 h 3.47257 v 10.141482 c 0,4.656401 2.64389,7.102984 7.26082,7.102984 1.77575,0 3.5515,-0.473532 4.73533,-1.420597 z"
           fill="#ffffff"
           id="path8500"
           style="fill:#000000;stroke-width:1.40932" />
        <path
           d="m 167.50649,34.491728 c 6.55053,0 11.24639,-4.498556 11.24639,-10.812319 0,-6.313763 -4.69586,-10.772859 -11.24639,-10.772859 -6.47161,0 -11.20693,4.459096 -11.20693,10.772859 0,6.313763 4.73532,10.812319 11.20693,10.812319 z m 0,-4.222329 c -3.55149,0 -6.23485,-2.564967 -6.23485,-6.58999 0,-4.025024 2.68336,-6.589991 6.23485,-6.589991 3.59095,0 6.2743,2.564967 6.2743,6.589991 0,4.025023 -2.68335,6.58999 -6.2743,6.58999 z"
           fill="#ffffff"
           id="path8502"
           style="fill:#000000;stroke-width:1.40932" />
        <path
           d="m 189.98095,34.491728 c 5.91914,0 9.54956,-2.564966 9.54956,-6.511069 0,-8.247353 -13.02213,-4.459095 -13.02213,-8.720885 0,-1.381135 1.4206,-2.367661 4.41963,-2.367661 2.01252,0 4.02503,0.39461 6.03754,1.578441 l 1.89412,-3.748797 c -1.89412,-1.14437 -5.09047,-1.815207 -7.8922,-1.815207 -5.68238,0 -9.27334,2.604427 -9.27334,6.589991 0,8.405196 13.02214,4.616939 13.02214,8.641963 0,1.460057 -1.30222,2.328199 -4.41963,2.328199 -2.6439,0 -5.48508,-0.868142 -7.33975,-2.091433 l -1.89413,3.748797 c 1.89413,1.341675 5.40615,2.367661 8.91819,2.367661 z"
           fill="#ffffff"
           id="path8504"
           style="fill:#000000;stroke-width:1.40932" />
      </g>
      <g
         id="g56576"
         style="fill:#000000"
         transform="translate(8,12)">
        <path
           d="M 24.4796,21.3844 36.7194,14.2664 48.9592,7.11187 36.7194,0 24.4796,7.11187 12.2398,0 0,7.11187 12.2398,14.2664 Z"
           fill="#ffffff"
           id="path8512"
           style="fill:#000000" />
        <path
           d="M 36.7194,19.6216 24.4796,26.7335 12.2398,19.6216 0,26.7335 12.2398,33.888 24.4796,40.9999 36.7194,33.888 48.9592,26.7335 Z"
           fill="#ffffff"
           id="path8514"
           style="fill:#000000" />
      </g>
    </g>
  </g>
</svg>
